<?xml version="1.0" encoding="iso-8859-1"?>
<!-- Generator: Adobe Illustrator 19.0.0, SVG Export Plug-In . SVG Version: 6.00 Build 0)  -->
<svg version="1.1" id="Layer_1" xmlns="http://www.w3.org/2000/svg" xmlns:xlink="http://www.w3.org/1999/xlink" x="0px" y="0px"
	 viewBox="0 0 512 512" style="enable-background:new 0 0 512 512;" xml:space="preserve">
<path style="fill:#FFC855;" d="M255.999,317.793L67.538,361.284c-24.032,5.546-41.056,26.945-41.056,51.609v81.451
	c0,9.751,7.904,17.655,17.655,17.655h423.724c9.751,0,17.655-7.904,17.655-17.655v-81.451c0-24.663-17.024-46.063-41.056-51.609
	L255.999,317.793z"/>
<rect x="185.379" y="282.483" style="fill:#E6B47D;" width="141.241" height="97.103"/>
<path style="fill:#D2A073;" d="M185.379,282.483v72.063c83.538,10.93,141.241-63.235,141.241-63.235v-8.828H185.379z"/>
<path style="fill:#F0C891;" d="M361.93,159.34v-53.409H150.068v130.55c0,17.709,8.17,34.247,21.771,44.07l39.249,28.346
	c8.031,5.8,17.468,8.896,27.121,8.896h35.582c9.652,0,19.089-3.095,27.119-8.896l39.249-28.346
	c13.601-9.823,21.771-26.36,21.771-44.07v-16.235c10.073-2.045,17.655-10.95,17.655-21.625v-17.655
	C379.586,170.289,372.004,161.385,361.93,159.34z"/>
<path style="fill:#E6B47D;" d="M204.546,147.165c29.346,5.13,81.786,11.732,157.385,11.732v-52.966H150.068v53.409
	c-10.073,2.045-17.655,10.95-17.655,21.625v17.655c0,10.676,7.582,19.581,17.655,21.625v16.235c0,17.709,8.17,34.247,21.771,44.07
	l39.249,28.346c8.031,5.8,17.468,8.896,27.121,8.896h8.963c-12.886,0-35.178-32.919-46.28-50.702
	c-4.385-7.025-6.686-15.083-6.686-23.364v-87.869C194.206,150.359,199.13,146.218,204.546,147.165z"/>
<path style="fill:#8C6450;" d="M247.172,0c-61.793,0-70.621,26.483-70.621,26.483c-35.31,0-52.966,8.828-52.966,44.138
	c0,23.724,8.828,97.103,8.828,97.103l17.655,8.828l16.455-61.841c0,0,80.649,26.53,186.58,26.53l8.828,35.31l17.655-8.828
	c0,0,8.828-52.966,8.828-88.276C388.413,26.483,317.793,0,247.172,0z"/>
<path style="fill:#7D5541;" d="M176.551,26.483c-35.31,0-52.966,8.828-52.966,44.138c0,23.724,8.828,97.103,8.828,97.103
	l17.655,8.828l16.455-61.841c0,0,80.649,26.53,186.58,26.53C229.517,114.759,176.551,52.966,176.551,26.483z"/>
<g>
	<path style="fill:#464655;" d="M194.21,194.211c-0.922,0-1.866-0.147-2.793-0.457l-52.966-17.655
		c-4.625-1.543-7.125-6.543-5.582-11.168c1.543-4.621,6.535-7.147,11.168-5.582l52.966,17.655c4.625,1.543,7.125,6.543,5.582,11.168
		C201.352,191.871,197.908,194.211,194.21,194.211z"/>
	<path style="fill:#464655;" d="M317.796,194.211c-3.699,0-7.143-2.34-8.375-6.039c-1.543-4.625,0.957-9.625,5.582-11.168
		l52.966-17.655c4.633-1.565,9.625,0.961,11.168,5.582c1.543,4.625-0.957,9.625-5.582,11.168l-52.966,17.655
		C319.663,194.065,318.718,194.211,317.796,194.211z"/>
</g>
<path style="fill:#D2A073;" d="M256.001,279.072c-10.767,0-21.185-2.146-30.13-6.198c-4.439-2.017-6.406-7.25-4.392-11.69
	c2.013-4.448,7.242-6.414,11.686-4.396c13.345,6.051,32.328,6.051,45.673,0c4.452-2.017,9.677-0.043,11.686,4.396
	c2.013,4.439,0.047,9.673-4.392,11.69C277.182,276.926,266.764,279.072,256.001,279.072z"/>
<path style="fill:#FFFFFF;" d="M229.517,211.862h-35.31c-4.875,0-8.828-3.953-8.828-8.828v-17.655c0-4.875,3.953-8.828,8.828-8.828
	h35.31c4.875,0,8.828,3.953,8.828,8.828v17.655C238.344,207.91,234.392,211.862,229.517,211.862z"/>
<path style="fill:#5A4137;" d="M211.862,203.034L211.862,203.034c-4.855,0-8.828-3.972-8.828-8.828v-8.828
	c0-4.855,3.972-8.828,8.828-8.828l0,0c4.855,0,8.828,3.972,8.828,8.828v8.828C220.689,199.062,216.717,203.034,211.862,203.034z"/>
<path style="fill:#FFFFFF;" d="M282.482,211.862h35.31c4.875,0,8.828-3.953,8.828-8.828v-17.655c0-4.875-3.953-8.828-8.828-8.828
	h-35.31c-4.875,0-8.828,3.953-8.828,8.828v17.655C273.655,207.91,277.607,211.862,282.482,211.862z"/>
<path style="fill:#5A4137;" d="M300.137,203.034L300.137,203.034c-4.855,0-8.828-3.972-8.828-8.828v-8.828
	c0-4.855,3.972-8.828,8.828-8.828l0,0c4.855,0,8.828,3.972,8.828,8.828v8.828C308.965,199.062,304.993,203.034,300.137,203.034z"/>
<path style="fill:#464655;" d="M273.655,203.034c-4.875,0-8.828-3.953-8.828-8.828c0-4.866-3.961-8.828-8.828-8.828
	c-4.866,0-8.828,3.961-8.828,8.828c0,4.875-3.953,8.828-8.828,8.828s-8.828-3.953-8.828-8.828c0-14.603,11.88-26.483,26.483-26.483
	c14.603,0,26.483,11.88,26.483,26.483C282.482,199.082,278.53,203.034,273.655,203.034z"/>
<g>
	<path style="fill:#707487;" d="M238.344,203.034c-4.875,0-8.828-3.953-8.828-8.828v-8.828h-35.31v8.828
		c0,4.875-3.953,8.828-8.828,8.828s-8.828-3.953-8.828-8.828v-8.828c0-9.737,7.918-17.655,17.655-17.655h35.31
		c9.737,0,17.655,7.918,17.655,17.655v8.828C247.172,199.082,243.219,203.034,238.344,203.034z"/>
	<path style="fill:#707487;" d="M326.62,203.034c-4.875,0-8.828-3.953-8.828-8.828v-8.828h-35.31v8.828
		c0,4.875-3.953,8.828-8.828,8.828s-8.828-3.953-8.828-8.828v-8.828c0-9.737,7.918-17.655,17.655-17.655h35.31
		c9.737,0,17.655,7.918,17.655,17.655v8.828C335.448,199.082,331.495,203.034,326.62,203.034z"/>
</g>
<g>
	<path style="fill:#FFAF4B;" d="M95.588,431.037l-54.455-54.455c-9.075,9.583-14.65,22.366-14.65,36.312v81.451
		c0,9.751,7.904,17.655,17.655,17.655h61.793v-55.994C105.93,446.641,102.211,437.66,95.588,431.037z"/>
	<path style="fill:#FFAF4B;" d="M416.411,431.037l54.455-54.455c9.076,9.582,14.652,22.365,14.652,36.311v81.452
		c0,9.751-7.904,17.655-17.655,17.655h-61.793v-55.994C406.068,446.641,409.788,437.66,416.411,431.037z"/>
</g>
<path style="fill:#D5DCEC;" d="M255.999,476.69L255.999,476.69c-9.751,0-17.655-7.904-17.655-17.655v-79.448h35.31v79.448
	C273.655,468.786,265.751,476.69,255.999,476.69z"/>
<g>
	<path style="fill:#E4EAF6;" d="M185.379,308.966l70.621,70.621c0,0-28.808,7.202-53.898,34.616
		c-3.699,4.042-10.346,2.814-12.22-2.335c-7.521-20.669-22.767-62.627-28.622-78.742c-1.389-3.825,0.019-8.093,3.404-10.35
		L185.379,308.966z"/>
	<path style="fill:#E4EAF6;" d="M326.62,308.966l-70.621,70.621c0,0,28.808,7.202,53.898,34.616
		c3.699,4.042,10.346,2.814,12.22-2.335c7.521-20.669,22.767-62.627,28.623-78.742c1.389-3.825-0.019-8.093-3.404-10.35
		L326.62,308.966z"/>
</g>
<g>
	<circle style="fill:#FFAF4B;" cx="255.999" cy="450.207" r="8.828"/>
	<circle style="fill:#FFAF4B;" cx="255.999" cy="414.897" r="8.828"/>
</g>
<g>
</g>
<g>
</g>
<g>
</g>
<g>
</g>
<g>
</g>
<g>
</g>
<g>
</g>
<g>
</g>
<g>
</g>
<g>
</g>
<g>
</g>
<g>
</g>
<g>
</g>
<g>
</g>
<g>
</g>
</svg>
